<svg id="Capa_1" data-name="Capa 1" xmlns="http://www.w3.org/2000/svg" viewBox="0 0 203.18 66.96"><defs><style>.cls-1{fill:#fff;}</style></defs><title>bellum</title><path class="cls-1" d="M847.09,531.31a20.37,20.37,0,0,0-3.62-6.8,23.62,23.62,0,0,0-5.73-5.08,28.16,28.16,0,0,0-4.4-2.29c.48-.2,1-.42,1.42-.67a11.59,11.59,0,0,0,4.7-4.35,10.4,10.4,0,0,0,1.19-3.06,13.06,13.06,0,0,0,.26-1.59c0-.53.07-1,.05-1.58a12.49,12.49,0,0,0-.49-3.2,10.42,10.42,0,0,0-1.53-3,11.85,11.85,0,0,0-5.18-3.76,21.83,21.83,0,0,0-5.83-1.33c-1-.1-1.94-.14-2.9-.15a27.25,27.25,0,0,0-3,.14l-1.66.16,0,1.69.73,38.85a1.83,1.83,0,0,0,3.67-.07l-.31-16.42a26.16,26.16,0,0,1,5.32.8,23.22,23.22,0,0,1,6.12,2.62,20.29,20.29,0,0,1,5.07,4.27,17.43,17.43,0,0,1,3.22,5.7,15.73,15.73,0,0,1,.7,6.48,16.53,16.53,0,0,1-2,6.28,20.19,20.19,0,0,1-10,8.72,24.39,24.39,0,0,1-6.62,1.71,26.62,26.62,0,0,1-6.87-.22,22.55,22.55,0,0,1-12.1-6.21,18.82,18.82,0,0,1-3.84-5.69,17.49,17.49,0,0,1-1.42-6.72A18,18,0,0,1,807.34,524a.4.4,0,0,0,0-.56.4.4,0,0,0-.56,0,20,20,0,0,0-4.22,6,18.23,18.23,0,0,0-1.64,7.16,18.77,18.77,0,0,0,1.34,7.25,20.23,20.23,0,0,0,4,6.22,24.26,24.26,0,0,0,12.86,7,28.52,28.52,0,0,0,7.41.43,26.4,26.4,0,0,0,7.26-1.69,22.56,22.56,0,0,0,11.43-9.51,19.08,19.08,0,0,0,2.52-7.23A18.46,18.46,0,0,0,847.09,531.31Zm-14.68-32a8.23,8.23,0,0,1,3.61,2.56,6.82,6.82,0,0,1,1,1.87,8.57,8.57,0,0,1,.33,2.2c0,.38,0,.78,0,1.16a9.06,9.06,0,0,1-.18,1.11,6.39,6.39,0,0,1-.78,2,7.87,7.87,0,0,1-3.26,3,19.47,19.47,0,0,1-8.58,1.88l-.32-17A21.72,21.72,0,0,1,832.41,499.33Z" transform="translate(-800.92 -490.54)"/><path class="cls-1" d="M868,538.44c-8.08,0-14.66-6.22-14.66-13.87S859.9,510.7,868,510.7a15.12,15.12,0,0,1,10.74,4.43l-.36,2.85-19.75,11.93a11.21,11.21,0,0,0,9.36,4.86,11.55,11.55,0,0,0,7-2.33,1.83,1.83,0,0,1,2.23,2.91A15.23,15.23,0,0,1,868,538.44Zm0-24.07c-6.06,0-11,4.58-11,10.2a9.49,9.49,0,0,0,.2,1.93l17.06-10.31A11.62,11.62,0,0,0,868,514.37Z" transform="translate(-800.92 -490.54)"/><path class="cls-1" d="M889.85,536.49a1.83,1.83,0,0,1-1.83-1.83V500.07c0-4.62-4.92-5.91-5-5.92a1.83,1.83,0,0,1,.89-3.56c2.68.67,7.74,3.51,7.74,9.48v34.58A1.83,1.83,0,0,1,889.85,536.49Z" transform="translate(-800.92 -490.54)"/><path class="cls-1" d="M903.66,536.49a1.83,1.83,0,0,1-1.83-1.83V500.07c0-4.57-4.77-5.87-5-5.92a1.83,1.83,0,0,1,.9-3.55c2.68.67,7.74,3.51,7.74,9.48v34.58A1.83,1.83,0,0,1,903.66,536.49Z" transform="translate(-800.92 -490.54)"/><path class="cls-1" d="M927.18,537.1c-7.58,0-13.75-5.7-13.75-12.71V512.54a1.83,1.83,0,1,1,3.67,0v11.85c0,5,4.52,9,10.08,9s10.08-4.06,10.08-9V512.54a1.83,1.83,0,0,1,3.67,0v11.85C940.93,531.4,934.76,537.1,927.18,537.1Z" transform="translate(-800.92 -490.54)"/><path class="cls-1" d="M1004.09,523.41v11.85a1.83,1.83,0,0,1-3.67,0V523.41c0-5-5.14-9-11.45-9s-11.46,4.05-11.46,9v11.85a1.83,1.83,0,1,1-3.67,0V523.41c0-5-5.14-9-11.45-9s-11.46,4.05-11.46,9v11.85a1.83,1.83,0,1,1-3.67,0V523.41c0-7,6.79-12.7,15.12-12.7,5.73,0,10.72,2.69,13.28,6.65,2.57-4,7.57-6.65,13.29-6.65C997.31,510.71,1004.09,516.4,1004.09,523.41Z" transform="translate(-800.92 -490.54)"/></svg>