<?xml version="1.0" encoding="utf-8"?>
<!-- Generator: Adobe Illustrator 21.0.0, SVG Export Plug-In . SVG Version: 6.00 Build 0)  -->
<svg version="1.1" id="Capa_1" xmlns="http://www.w3.org/2000/svg" xmlns:xlink="http://www.w3.org/1999/xlink" x="0px" y="0px"
	 viewBox="0 0 1920 1080" style="enable-background:new 0 0 1920 1080;" xml:space="preserve">
<style type="text/css">
	.st0{fill:#FFFFFF;}
</style>
<g>
	<g>
		<g>
			<path class="st0" d="M1024.9,499.6c-5-2.7-10.1-5.1-14.9-8c-4.9-2.9-9.2-6.7-12.8-11.2c7.7,2.1,15.2,4.6,23.5,4.2
				c-0.6-0.5-1.2-1-1.8-1.4c-6.2-4-12.8-7.4-18.1-12.8c-1.3-1.3-2.3-2.9-3.5-4.3c0.1-0.1,0.3-0.3,0.4-0.4c5.8,2.4,11.7,4.9,17.5,7.3
				c0.2-0.3,0.4-0.6,0.6-0.9c-8-8.2-15.9-16.4-23.9-24.6c0.2-0.2,0.4-0.5,0.6-0.7c3.8,2.5,7.6,4.7,11.3,7.4
				c18.8,13.8,36.2,29.3,52,46.4c2.1,2.3,4,4.8,5.8,7.4c1.4,2,1.1,2.8-1.2,2.9c-5.8,0.3-11.7,0.7-17.5,0.2c-6-0.5-12-1.7-17.9-3
				c-5-1-9.7-2.8-13.9-5.8c-0.5-0.4-1-0.8-1.4-1.2c0-0.2,0.1-0.5,0.1-0.7c5,0,10.1,0,15.1,0C1024.9,500.1,1024.9,499.9,1024.9,499.6
				z"/>
			<path class="st0" d="M1034.7,546.4c-1.9,1.3-3.9,2.5-5.8,3.8c-6.2,4.5-12.7,8.7-18.6,13.6c-10.2,8.5-17.8,19.3-24.4,30.8
				c-6.4,11.1-11.6,22.7-16.5,34.5c-0.6,1.4-1.2,2.7-2.3,3.9c0.8-2.6,1.6-5.3,2.5-7.9c5.3-15.4,12-30.2,20.6-44.1
				c8.4-13.8,20.4-23.9,33.8-32.3c4.1-2.6,8.3-5,12.4-7.5c0.6-0.4,1.2-1,1.5-1.6c4.3-8.5,10-16.1,16.6-23c1-1,2.1-1.7,3.5-2.3
				c-5.8,7.8-12.9,14.7-16.3,24.6c5.8-1.3,11-3.7,16.8-2.6c-2.4,0.7-4.8,1.2-7.2,2c-2.6,0.8-5.2,1.8-7.8,2.8
				c-2.5,0.9-3.8,2.5-4.6,5.1c-2.3,7.4-4.7,14.8-7.5,22.1c-4.8,12.3-11.4,23.7-20.7,33.1c-3.1,3.1-6.5,5.8-10,8.5
				c16.9-18.1,27.1-39.8,34.6-63C1035,546.6,1034.8,546.5,1034.7,546.4z"/>
			<path class="st0" d="M1031.6,529.2c-6.7,3.5-13.7,6.3-21.5,5.9c12-9,25-16.1,39.5-20.5c0.3,5.1-11.2,21.5-16.8,24.3
				c0.6-1.3,1-2.3,1.6-3.9c-3.7,2-6,5.4-9.8,6c-0.2-0.2-0.4-0.4-0.6-0.6c2.7-3.6,5.4-7.2,8.1-10.8
				C1031.8,529.5,1031.7,529.4,1031.6,529.2z"/>
			<path class="st0" d="M1066.1,533.7c2.4-1.5,4.7-3.1,7.1-4.6c5.6-3.4,9.7-7.9,11.8-14.3c2.2-6.9,5.9-12.9,11.7-17.6
				c0.3-0.2,0.5-0.5,0.7-0.8c0.1-0.1,0-0.3,0-0.7c-2.1,0.5-4.2,1-6.2,1.4c-3.4,0.6-6.8,1.1-10.1,1.9c-5.1,1.2-8.2,5.2-11.3,9
				c-1.2,1.5-2.4,2.9-3.6,4.4c-0.2-0.1-0.4-0.2-0.6-0.4c1-1.9,1.8-3.9,2.9-5.7c3.8-6.1,8.7-10.7,16-12c1.4-0.2,2.8-0.3,4.3-0.3
				c7.8,0,14.8-2.8,21.7-5.8c2.8-1.2,5.6-2.4,8.6-3.2c-1,0.6-2.1,1.2-3.1,1.8c-7.1,4.3-13.8,9.1-19.4,15.3
				c-3.8,4.3-6.9,9.1-8.2,14.8c-1.8,7.7-6.4,12.7-13.9,15c-2.6,0.8-5.3,1.6-7.9,2.4C1066.4,534.1,1066.2,533.9,1066.1,533.7z"/>
		</g>
	</g>
	<g>
		<g>
			<path class="st0" d="M847.1,531.3c-0.7-2.5-2-4.8-3.6-6.8c-1.6-2-3.6-3.7-5.7-5.1c-1.4-0.9-2.9-1.7-4.4-2.3
				c0.5-0.2,1-0.4,1.4-0.7c1.8-1,3.6-2.4,4.7-4.4c0.6-1,1-2,1.2-3.1c0.1-0.5,0.2-1.1,0.3-1.6c0-0.5,0.1-1,0.1-1.6
				c0-1.1-0.2-2.1-0.5-3.2c-0.3-1.1-0.9-2.1-1.5-3c-1.4-1.8-3.3-3-5.2-3.8c-1.9-0.7-3.9-1.1-5.8-1.3c-1-0.1-1.9-0.1-2.9-0.1
				c-1,0-1.9,0-3,0.1l-1.7,0.2l0,1.7l0.7,38.9c0,1,0.9,1.8,1.9,1.8c1,0,1.8-0.9,1.8-1.9l-0.3-16.4c1.8,0.1,3.6,0.4,5.3,0.8
				c2.2,0.6,4.2,1.5,6.1,2.6c1.9,1.2,3.7,2.6,5.1,4.3c1.4,1.7,2.5,3.6,3.2,5.7c0.7,2.1,0.9,4.3,0.7,6.5c-0.2,2.2-0.9,4.3-2,6.3
				c-2.2,3.9-5.8,7-10,8.7c-2.1,0.9-4.3,1.5-6.6,1.7c-2.3,0.2-4.6,0.2-6.9-0.2c-4.5-0.8-8.9-2.9-12.1-6.2c-1.6-1.6-2.9-3.6-3.8-5.7
				c-0.9-2.1-1.4-4.4-1.4-6.7c0-4.6,2-9.2,5.3-12.6c0.2-0.2,0.2-0.4,0-0.6c-0.2-0.2-0.4-0.2-0.6,0c-1.7,1.7-3.2,3.7-4.2,6
				c-1,2.2-1.6,4.7-1.6,7.2c0,2.5,0.4,4.9,1.3,7.3c0.9,2.3,2.3,4.4,4,6.2c3.4,3.6,8,6,12.9,7c2.4,0.5,4.9,0.6,7.4,0.4
				c2.5-0.2,4.9-0.8,7.3-1.7c4.7-1.8,8.8-5.1,11.4-9.5c1.3-2.2,2.2-4.7,2.5-7.2C848.1,536.5,847.8,533.8,847.1,531.3z M832.4,499.3
				c1.5,0.6,2.8,1.4,3.6,2.6c0.4,0.6,0.7,1.2,1,1.9c0.2,0.7,0.3,1.4,0.3,2.2c0,0.4,0,0.8,0,1.2c-0.1,0.4-0.1,0.8-0.2,1.1
				c-0.1,0.7-0.4,1.4-0.8,2c-0.7,1.2-1.9,2.2-3.3,3c-2.5,1.3-5.6,1.8-8.6,1.9l-0.3-17C827,498.1,829.9,498.4,832.4,499.3z"/>
		</g>
	</g>
	<g>
		<g>
			<path class="st0" d="M868,538.4c-8.1,0-14.7-6.2-14.7-13.9s6.6-13.9,14.7-13.9c4.1,0,8,1.6,10.7,4.4l-0.4,2.9l-19.7,11.9
				c1.9,2.9,5.4,4.9,9.4,4.9c2.5,0,5-0.8,7-2.3c0.8-0.6,2-0.5,2.6,0.3c0.6,0.8,0.5,2-0.3,2.6C874.6,537.3,871.3,538.4,868,538.4z
				 M868,514.4c-6.1,0-11,4.6-11,10.2c0,0.7,0.1,1.3,0.2,1.9l17.1-10.3C872.4,515,870.2,514.4,868,514.4z"/>
		</g>
	</g>
	<g>
		<g>
			<path class="st0" d="M889.9,536.5c-1,0-1.8-0.8-1.8-1.8v-34.6c0-4.6-4.9-5.9-5-5.9c-1-0.2-1.6-1.2-1.3-2.2c0.2-1,1.2-1.6,2.2-1.3
				c2.7,0.7,7.7,3.5,7.7,9.5v34.6C891.7,535.7,890.9,536.5,889.9,536.5z"/>
		</g>
	</g>
	<g>
		<g>
			<path class="st0" d="M903.7,536.5c-1,0-1.8-0.8-1.8-1.8v-34.6c0-4.6-4.8-5.9-5-5.9c-1-0.3-1.6-1.3-1.3-2.2c0.2-1,1.2-1.6,2.2-1.3
				c2.7,0.7,7.7,3.5,7.7,9.5v34.6C905.5,535.7,904.7,536.5,903.7,536.5z"/>
		</g>
	</g>
	<g>
		<g>
			<path class="st0" d="M927.2,537.1c-7.6,0-13.7-5.7-13.7-12.7v-11.9c0-1,0.8-1.8,1.8-1.8s1.8,0.8,1.8,1.8v11.9c0,5,4.5,9,10.1,9
				s10.1-4.1,10.1-9v-11.9c0-1,0.8-1.8,1.8-1.8s1.8,0.8,1.8,1.8v11.9C940.9,531.4,934.8,537.1,927.2,537.1z"/>
		</g>
	</g>
	<g>
		<g>
			<path class="st0" d="M1004.1,523.4v11.9c0,1-0.8,1.8-1.8,1.8c-1,0-1.8-0.8-1.8-1.8v-11.9c0-5-5.1-9-11.5-9
				c-6.3,0-11.5,4.1-11.5,9v11.9c0,1-0.8,1.8-1.8,1.8s-1.8-0.8-1.8-1.8v-11.9c0-5-5.1-9-11.5-9c-6.3,0-11.5,4.1-11.5,9v11.9
				c0,1-0.8,1.8-1.8,1.8c-1,0-1.8-0.8-1.8-1.8v-11.9c0-7,6.8-12.7,15.1-12.7c5.7,0,10.7,2.7,13.3,6.6c2.6-4,7.6-6.6,13.3-6.6
				C997.3,510.7,1004.1,516.4,1004.1,523.4z"/>
		</g>
	</g>
</g>
</svg>
